HIERARCHY
ROOT RootJoint
{
    OFFSET   0.000000   0.000000   0.000000
    CHANNELS 6 Xposition Yposition Zposition Xrotation Yrotation Zrotation
    JOINT pelvis_lowerback
    {
        OFFSET   0.000000   0.093605   0.000000
        CHANNELS 3 Xrotation Yrotation Zrotation
        JOINT lowerback_torso
        {
            OFFSET   0.000000   0.100000   0.000000
            CHANNELS 3 Xrotation Yrotation Zrotation
            JOINT torso_head
            {
                OFFSET   0.000000   0.282350   0.000000
                CHANNELS 3 Xrotation Yrotation Zrotation
                End Site
                {
                    OFFSET   0.000000   0.192650   0.000000
                }
            }
            JOINT rTorso_Clavicle
            {
                OFFSET  -0.001000   0.157500   0.000000
                CHANNELS 3 Xrotation Yrotation Zrotation
                JOINT rShoulder
                {
                    OFFSET  -0.117647   0.000000   0.000000
                    CHANNELS 3 Xrotation Yrotation Zrotation
                    JOINT rElbow
                    {
                        OFFSET  -0.245000   0.000000   0.000000
                        CHANNELS 3 Xrotation Yrotation Zrotation
                        JOINT rWrist
                        {
                            OFFSET  -0.240000   0.000000   0.000000
                            CHANNELS 3 Xrotation Yrotation Zrotation
                            End Site
                            {
                                OFFSET  -0.116353  -0.002500   0.000000
                            }
                        }
                    }
                }
            }
            JOINT lTorso_Clavicle
            {
                OFFSET   0.001000   0.157500   0.000000
                CHANNELS 3 Xrotation Yrotation Zrotation
                JOINT lShoulder
                {
                    OFFSET   0.117647   0.000000   0.000000
                    CHANNELS 3 Xrotation Yrotation Zrotation
                    JOINT lElbow
                    {
                        OFFSET   0.245000   0.000000   0.000000
                        CHANNELS 3 Xrotation Yrotation Zrotation
                        JOINT lWrist
                        {
                            OFFSET   0.240000   0.000000   0.000000
                            CHANNELS 3 Xrotation Yrotation Zrotation
                            End Site
                            {
                                OFFSET   0.116353  -0.002500   0.000000
                            }
                        }
                    }
                }
            }
        }
    }
    JOINT rHip
    {
        OFFSET  -0.100000  -0.051395   0.000000
        CHANNELS 3 Xrotation Yrotation Zrotation
        JOINT rKnee
        {
            OFFSET   0.000000  -0.410000   0.000000
            CHANNELS 3 Xrotation Yrotation Zrotation
            JOINT rAnkle
            {
                OFFSET   0.000000  -0.390000   0.000000
                CHANNELS 3 Xrotation Yrotation Zrotation
                JOINT rToeJoint
                {
                    OFFSET   0.000000  -0.050000   0.130000
                    CHANNELS 3 Xrotation Yrotation Zrotation
                    End Site
                    {
                        OFFSET  -0.010000   0.002000   0.060000
                    }
                }
            }
        }
    }
    JOINT lHip
    {
        OFFSET   0.100000  -0.051395   0.000000
        CHANNELS 3 Xrotation Yrotation Zrotation
        JOINT lKnee
        {
            OFFSET   0.000000  -0.410000   0.000000
            CHANNELS 3 Xrotation Yrotation Zrotation
            JOINT lAnkle
            {
                OFFSET   0.000000  -0.390000   0.000000
                CHANNELS 3 Xrotation Yrotation Zrotation
                JOINT lToeJoint
                {
                    OFFSET   0.000000  -0.050000   0.130000
                    CHANNELS 3 Xrotation Yrotation Zrotation
                    End Site
                    {
                        OFFSET   0.010000   0.002000   0.060000
                    }
                }
            }
        }
    }
}
MOTION
Frames: 15
Frame Time:   0.008333
 -2.817858   0.660747   3.210045  -0.895189 -25.499742  -7.096774  46.875137  15.940037 -11.292362   6.228381  14.877570  -9.769022  -9.070383   0.897247   0.075111 -10.254250  23.412951  -1.242332 -19.202054  30.907853  30.440920  -0.055704  68.851499   0.036439   0.369756   7.385201  -2.424697   3.070236   7.363714  -2.144747  21.790865  14.658561 -43.132985   0.007562 -29.556041   0.004332  -5.775448  -0.826817  -0.207846 -16.583346  -6.850802   7.579642 112.032408   0.050275  -0.088971 -10.784636  -0.128639   1.168967 -17.048278   0.111557  -0.090205 -56.143667   6.577296  11.024621  95.182713   0.004776   0.008283 -42.600534   4.596122   8.133807   2.150752   0.001110  -0.003814
 -2.823591   0.659102   3.220403  -0.661916 -24.721628  -7.037940  47.180140  15.481754 -11.280917   6.394380  14.596815  -9.662361  -8.965448   0.807794  -0.001667 -10.002916  23.083700  -0.739727 -17.786283  30.222220  30.245068  -0.083015  67.672914   0.052957   0.475880   7.760850  -2.636914   2.525129   6.650002  -2.664933  20.404504  14.260387 -42.728252   0.007353 -30.009874   0.004490  -5.673736  -0.776326   0.048562 -17.786025  -6.116102   6.742230 114.128764   0.060844  -0.093283 -10.767862  -1.053876   0.594916 -15.819598   0.114352  -0.086130 -55.665301   6.389315  10.884045  95.994779   0.005639   0.010393 -43.632336   4.061374   8.272889   1.732166   0.002225  -0.003005
 -2.829391   0.657894   3.230821  -0.558406 -23.841171  -7.061842  47.521732  14.958388 -11.179630   6.577696  14.238230  -9.490258  -8.869553   0.735753  -0.070834  -9.688556  22.735627  -0.232968 -16.403572  29.497236  30.083227  -0.101689  66.485485   0.062885   0.557228   7.708336  -2.790670   1.920025   5.877115  -3.155667  19.018606  13.794236 -42.311957   0.007032 -30.483115   0.004982  -5.581426  -0.949646   0.403183 -19.234625  -5.391934   5.959820 116.097184   0.069490  -0.095775 -10.768884  -1.921197   0.051298 -14.745714   0.113620  -0.080737 -54.958848   6.154795  10.747765  96.667780   0.006201   0.011779 -44.700946   3.460922   8.373679   1.410233   0.002759  -0.002364
 -2.835284   0.656922   3.241339  -0.571686 -22.919218  -7.173200  47.862079  14.377940 -11.022787   6.772638  13.813773  -9.264425  -8.779194   0.670421  -0.130474  -9.343416  22.382255   0.268166 -15.084300  28.787128  29.965878  -0.111300  65.353553   0.066846   0.624126   7.474243  -2.868451   1.308121   5.092823  -3.603848  17.685192  13.306696 -41.903717   0.006664 -30.949214   0.005824  -5.490187  -1.271979   0.786838 -20.847387  -4.705073   5.229660 117.921384   0.074638  -0.096549 -10.782406  -2.729922  -0.461130 -13.783292   0.110099  -0.075272 -54.062941   5.864561  10.655105  97.253532   0.006439   0.012635 -45.826157   2.831295   8.443209   1.169005   0.002940  -0.001862
 -2.841252   0.656056   3.251967  -0.680669 -21.989437  -7.354619  48.185271  13.756632 -10.831619   6.970311  13.341106  -9.003527  -8.692830   0.608918  -0.184441  -8.986396  22.026863   0.755067 -13.835768  28.103009  29.884149  -0.113634  64.287341   0.066407   0.684190   7.174397  -2.884224   0.708605   4.318761  -4.003210  16.418122  12.817677 -41.503473   0.006291 -31.398287   0.006812  -5.397584  -1.672768   1.191086 -22.571328  -4.057847   4.542342 119.603635   0.076413  -0.095755 -10.806685  -3.483719  -0.943201 -12.919282   0.104394  -0.069992 -53.012073   5.526695  10.614983  97.778141   0.006414   0.013084 -47.010882   2.203404   8.483847   0.993179   0.002892  -0.001479
 -2.847268   0.655208   3.262702  -0.862692 -21.069265  -7.584602  48.481410  13.109431 -10.619057   7.161697  12.833943  -8.721757  -8.610204   0.550438  -0.235321  -8.629193  21.669530   1.221611 -12.659226  27.446854  29.828636  -0.110561  63.287092   0.062907   0.740540   6.851587  -2.856966   0.129377   3.565870  -4.354596  15.220917  12.336540 -41.112005   0.005946 -31.826399   0.007757  -5.302888  -2.113456   1.615102 -24.364942  -3.447091   3.893005 121.152351   0.075499  -0.093541 -10.839843  -4.186347  -1.396083 -12.143158   0.097195  -0.064897 -51.837129   5.151323  10.625290  98.255389   0.006189   0.013219 -48.249772   1.593074   8.496351   0.869835   0.002696  -0.001183
 -2.853328   0.654314   3.273568  -1.108101 -20.165895  -7.848358  48.747192  12.449028 -10.393408   7.342403  12.303890  -8.428633  -8.531165   0.494734  -0.284007  -8.278379  21.310589   1.665127 -11.553263  26.818505  29.792784  -0.103736  62.350342   0.057420   0.794413   6.522669  -2.802668  -0.426053   2.840538  -4.662884  14.093447  11.868213 -40.731430   0.005658 -32.231993   0.008525  -5.206033  -2.572462   2.055778 -26.179921  -2.869297   3.283576 122.578066   0.072687  -0.090079 -10.879912  -4.841352  -1.821016 -11.444760   0.089148  -0.059935 -50.577781   4.761846  10.692042  98.723825   0.005964   0.013316 -49.463584   1.029642   8.495008   0.656775   0.002834  -0.001009
 -2.859391   0.654219   3.284002  -1.135104 -19.275386  -8.101526  49.043147  11.997167 -10.038765   7.340610  11.878423  -8.278314  -8.305437   0.537856  -0.381000  -7.918169  20.766112   1.959793 -10.409576  25.778615  29.853545  -0.099767  61.206635   0.053034   0.761476   6.568616  -2.741019  -1.072905   2.057512  -4.885485  12.511844  11.144505 -40.021574   0.003062 -33.138106   0.007620  -5.040269  -2.351079   2.265435 -28.751059  -2.440435   2.758113 123.381946   0.064415  -0.080165 -11.209499  -5.332825  -1.913329 -10.708783   0.079399  -0.056206 -49.458616   4.226532  10.834678  98.971742   0.005129   0.012194 -50.591536   0.455318   8.157416   0.577669   0.002348  -0.000800
 -2.865569   0.654492   3.294514  -1.243378 -18.372791  -8.377774  49.369283  11.513033  -9.668883   7.337836  11.392782  -8.099459  -8.081346   0.597739  -0.482997  -7.552629  20.205294   2.221202  -9.311883  24.745323  29.906575  -0.093218  60.090259   0.047346   0.714547   6.392142  -2.663170  -1.770638   1.213232  -5.029388  10.949008  10.361754 -39.295877   0.000268 -34.046712   0.007299  -4.876407  -2.441630   2.582418 -31.550835  -2.066347   2.253630 123.886462   0.055210  -0.068938 -11.537400  -5.786187  -2.003289 -10.079673   0.069509  -0.051787 -48.184075   3.678458  11.011696  99.103449   0.004262   0.010602 -51.709036  -0.112204   7.818833   0.528036   0.001944  -0.000637
 -2.871859   0.654873   3.305243  -1.450308 -17.466084  -8.684618  49.679845  10.974613  -9.281152   7.341862  10.847721  -7.880470  -7.864405   0.655865  -0.580351  -7.192854  19.650287   2.469629  -8.275485  23.757842  29.971777  -0.083781  59.035756   0.039855   0.666383   6.123709  -2.557067  -2.463108   0.358249  -5.117916   9.458359   9.572387 -38.585579  -0.002090 -34.917942   0.007584  -4.708892  -2.695564   2.974547 -34.429876  -1.717631   1.780921 124.241512   0.046639  -0.058326 -11.853046  -6.207408  -2.090648  -9.521671   0.060319  -0.047148 -46.746740   3.121199  11.230693  99.167804   0.003466   0.008907 -52.853334  -0.653866   7.478157   0.502195   0.001596  -0.000510
 -2.878281   0.655238   3.316226  -1.728495 -16.537431  -9.014645  49.949244  10.388995  -8.864625   7.335997  10.254572  -7.620270  -7.658402   0.708867  -0.671213  -6.841095  19.096483   2.707359  -7.298482  22.815344  30.048143  -0.072421  58.045889   0.031231   0.619729   5.825153  -2.437656  -3.134510  -0.484629  -5.164843   8.051038   8.793817 -37.901712  -0.003873 -35.743679   0.007990  -4.538829  -3.026440   3.414509 -37.312505  -1.389933   1.344474 124.514424   0.039198  -0.048921 -12.153830  -6.599099  -2.174485  -9.024638   0.052091  -0.042424 -45.185499   2.584358  11.507599  99.184397   0.002779   0.007244 -54.033280  -1.118859   7.133123   0.492053   0.001293  -0.000419
 -2.884808   0.655532   3.327470  -2.050311 -15.597779  -9.347967  50.166569   9.771778  -8.427575   7.308728   9.625910  -7.333308  -7.465649   0.756677  -0.756209  -6.499910  18.541177   2.931513  -6.378048  21.913955  30.130622  -0.060145  57.117604   0.022202   0.574918   5.513834  -2.319775  -3.779689  -1.304484  -5.184914   6.728321   8.033299 -37.253302  -0.005083 -36.522770   0.008185  -4.367858  -3.396720   3.880075 -40.158455  -1.070589   0.940526 124.740451   0.032930  -0.040841 -12.439054  -6.963937  -2.254790  -8.581589   0.044823  -0.037762 -43.530268   2.059027  11.831981  99.158505   0.002169   0.005622 -55.242205  -1.543527   6.785126   0.497499   0.001025  -0.000327
 -2.891429   0.655727   3.339010  -2.405011 -14.665934  -9.672799  50.330247   9.139344  -7.981990   7.257011   8.975339  -7.035769  -7.286642   0.799879  -0.835897  -6.171474  17.985887   3.140245  -5.511918  21.051901  30.215712  -0.047750  56.247443   0.013324   0.531867   5.195659  -2.212719  -4.395960  -2.094427  -5.191992   5.489090   7.295345 -36.647767  -0.005788 -37.255907   0.008011  -4.197443  -3.787257   4.351477 -42.928325  -0.755356   0.572437 124.938834   0.027720  -0.034000 -12.708717  -7.304096  -2.331518  -8.186058   0.038424  -0.033278 -41.816428   1.553815  12.203225  99.124757   0.001673   0.004266 -56.396092  -1.927021   6.452196   0.373965   0.001081  -0.000470
 -2.898357   0.656663   3.350413  -2.474431 -13.764720 -10.226500  50.182257   8.685811  -7.292245   7.227307   8.421980  -6.789666  -6.966798   0.914935  -0.977816  -5.786854  17.447527   3.240505  -4.668860  20.022510  30.262762  -0.037044  55.244014   0.005730   0.435847   5.153144  -2.119257  -4.707780  -2.837604  -5.153452   4.018396   6.311226 -35.819573  -0.009794 -38.597447   0.010099  -4.035068  -3.633646   4.451369 -45.984207  -0.998374   0.469458 123.387257   0.012606  -0.022654 -12.813049  -7.501130  -1.897289  -7.719716   0.029390  -0.029521 -40.336876   0.649428  12.848386  98.958047   0.001364   0.002176 -57.509316  -2.369166   5.765744   0.386280   0.000860  -0.000376
 -2.905271   0.657789   3.362037  -2.510903 -12.965744 -10.725470  49.989287   8.208087  -6.677356   7.168527   7.840859  -6.550448  -6.647827   1.029469  -1.128344  -5.417054  16.899814   3.297909  -3.866925  19.023375  30.295187  -0.026591  54.284744  -0.001509   0.340444   5.002650  -2.017420  -5.036969  -3.586417  -5.002504   2.611695   5.323768 -34.987539  -0.014232 -39.897240   0.011546  -3.856240  -3.742314   4.576109 -49.028739  -1.304413   0.363641 121.285538  -0.000682  -0.014940 -12.931266  -7.675171  -1.487691  -7.263632   0.021264  -0.025820 -38.813158  -0.174095  13.505612  98.676579   0.001314  -0.000229 -58.599028  -2.716015   5.105780   0.404667   0.000676  -0.000301
